<svg width="198" height="76" viewBox="0 0 198 76" fill="none" xmlns="http://www.w3.org/2000/svg">
<path fill-rule="evenodd" clip-rule="evenodd" d="M61.7985 55.0465C71.7884 46.8033 69.8281 27.381 54.2163 20.8065C41.9789 15.653 20.1778 21.1765 17.144 31.906C15.9907 35.9845 19.4857 40.716 24.0996 42.5615C24.9826 42.9147 26.1968 43.012 27.6097 43.1252C29.7493 43.2966 32.3445 43.5046 34.9353 44.6928C36.4721 45.3976 37.8972 47.3826 39.4068 49.4856C41.5963 52.5355 43.9639 55.8335 47.1088 55.8335C48.5563 55.8335 50.1215 56.0127 51.6983 56.1934L51.6983 56.1934H51.6984H51.6984C55.4891 56.6276 59.3468 57.0695 61.7985 55.0465ZM50.5185 22.561C47.673 20.6492 38.4252 21.0938 36.6023 21.6273C34.2773 22.3078 33.4833 24.2617 33.0336 26.6002C32.711 28.2775 51.8512 23.4564 50.5185 22.561ZM41.9203 38.1682C44.7817 37.5276 59.6012 31.0361 59.8574 29.8403C60.3224 27.6703 57.6195 24.9289 54.4336 24.9289C52.469 24.9289 37.8204 29.8403 36.8808 32.061C35.9412 34.2818 40.0174 38.5943 41.9203 38.1682ZM55.723 54.1926C59.3847 54.8436 37.1352 43.0694 40.592 46.5368C41.5544 47.5021 42.2623 48.5576 42.924 49.5441L42.924 49.5441C43.8367 50.9048 44.6613 52.1342 45.9443 52.815C47.4355 53.6063 49.3917 53.7013 51.5241 53.8049H51.5242C52.8773 53.8707 54.3015 53.9399 55.723 54.1926ZM57.0918 51.0019C58.8491 50.3542 60.546 34.7005 60.0472 34.2363C58.9416 33.2073 43.0805 43.196 43.0805 43.9862C43.0805 44.6726 56.4326 51.2449 57.0918 51.0019ZM61.5559 51.4155C61.0195 51.3348 62.2697 33.6301 62.9334 33.3791C63.6495 33.1084 65.271 35.4557 65.271 41.4667C65.271 45.614 63.2031 51.6633 61.5559 51.4155ZM28.984 28.8397C29.7352 27.7016 30.5714 25.462 30.2887 24.8966C29.8482 24.0156 20.0491 27.8689 19.8435 33.0347C19.7618 35.087 20.6697 36.3971 21.5352 36.6051C22.6523 36.8734 28.2329 29.9778 28.984 28.8397ZM35.3332 40.4778C35.818 38.7001 33.0707 30.9109 32.3018 30.9109C31.1236 30.9108 24.8153 38.1092 24.5814 39.2442C24.3474 40.3792 34.8483 42.2555 35.3332 40.4778Z" fill="#1B1B1B"/>
<path d="M78.049 47.2267C77.8677 47.2267 77.7045 47.1633 77.5595 47.0363C77.4326 46.8913 77.3691 46.7281 77.3691 46.5468V28.8703C77.3691 28.6708 77.4326 28.5077 77.5595 28.3808C77.7045 28.2539 77.8677 28.1904 78.049 28.1904H80.986C81.4212 28.1904 81.7384 28.3898 81.9379 28.7887L86.7241 37.355L91.5104 28.7887C91.7098 28.3898 92.0271 28.1904 92.4622 28.1904H95.372C95.5715 28.1904 95.7346 28.2539 95.8616 28.3808C96.0066 28.5077 96.0791 28.6708 96.0791 28.8703V46.5468C96.0791 46.7463 96.0066 46.9094 95.8616 47.0363C95.7346 47.1633 95.5715 47.2267 95.372 47.2267H92.1359C91.9364 47.2267 91.7642 47.1633 91.6192 47.0363C91.4923 46.9094 91.4288 46.7463 91.4288 46.5468V36.3488L88.383 42.0325C88.1473 42.4495 87.83 42.658 87.4312 42.658H86.0171C85.7814 42.658 85.591 42.6036 85.446 42.4948C85.3009 42.3861 85.174 42.2319 85.0652 42.0325L81.9922 36.3488V46.5468C81.9922 46.7281 81.9288 46.8913 81.8019 47.0363C81.675 47.1633 81.5118 47.2267 81.3124 47.2267H78.049Z" fill="#1B1B1B"/>
<path d="M100.57 47.2267C100.388 47.2267 100.225 47.1633 100.08 47.0363C99.9532 46.8913 99.8898 46.7281 99.8898 46.5468V28.8703C99.8898 28.6708 99.9532 28.5077 100.08 28.3808C100.225 28.2539 100.388 28.1904 100.57 28.1904H104.214C104.413 28.1904 104.576 28.2539 104.703 28.3808C104.848 28.5077 104.921 28.6708 104.921 28.8703V46.5468C104.921 46.7463 104.848 46.9094 104.703 47.0363C104.576 47.1633 104.413 47.2267 104.214 47.2267H100.57Z" fill="#1B1B1B"/>
<path d="M109.387 47.2267C109.205 47.2267 109.042 47.1633 108.897 47.0363C108.77 46.8913 108.707 46.7281 108.707 46.5468V28.8703C108.707 28.6708 108.77 28.5077 108.897 28.3808C109.042 28.2539 109.205 28.1904 109.387 28.1904H112.269C112.723 28.1904 113.031 28.3626 113.194 28.7071L119.829 39.1499V28.8703C119.829 28.6708 119.893 28.5077 120.02 28.3808C120.165 28.2539 120.328 28.1904 120.509 28.1904H123.773C123.972 28.1904 124.135 28.2539 124.262 28.3808C124.389 28.5077 124.453 28.6708 124.453 28.8703V46.5196C124.453 46.7191 124.389 46.8913 124.262 47.0363C124.135 47.1633 123.972 47.2267 123.773 47.2267H120.863C120.464 47.2267 120.165 47.0545 119.965 46.71L113.33 36.648V46.5468C113.33 46.7281 113.266 46.8913 113.14 47.0363C113.013 47.1633 112.849 47.2267 112.65 47.2267H109.387Z" fill="#1B1B1B"/>
<path d="M135.351 47.4987C133.629 47.4987 132.151 47.2448 130.918 46.7372C129.685 46.2296 128.752 45.5678 128.117 44.752C127.501 43.918 127.174 43.0115 127.138 42.0325C127.138 41.8875 127.192 41.7606 127.301 41.6518C127.428 41.5249 127.573 41.4614 127.736 41.4614H131.163C131.38 41.4614 131.553 41.5068 131.68 41.5974C131.825 41.6699 131.97 41.7878 132.115 41.9509C132.35 42.4223 132.731 42.8121 133.257 43.1203C133.783 43.4285 134.481 43.5826 135.351 43.5826C136.384 43.5826 137.173 43.4195 137.717 43.0931C138.261 42.7668 138.533 42.3226 138.533 41.7606C138.533 41.3617 138.388 41.0354 138.098 40.7816C137.826 40.5277 137.39 40.3011 136.792 40.1017C136.194 39.9023 135.306 39.6756 134.127 39.4218C131.952 38.9686 130.32 38.3068 129.232 37.4366C128.162 36.5483 127.628 35.2882 127.628 33.6565C127.628 32.5506 127.936 31.5626 128.552 30.6923C129.169 29.8221 130.048 29.1422 131.19 28.6527C132.332 28.1632 133.665 27.9185 135.188 27.9185C136.765 27.9185 138.134 28.1904 139.294 28.7343C140.454 29.2782 141.334 29.9671 141.932 30.8011C142.548 31.6169 142.875 32.4237 142.911 33.2214C142.911 33.3846 142.857 33.5206 142.748 33.6294C142.639 33.7381 142.503 33.7925 142.34 33.7925H138.75C138.533 33.7925 138.351 33.7563 138.206 33.6837C138.079 33.6112 137.962 33.4934 137.853 33.3302C137.744 32.9132 137.445 32.5597 136.955 32.2696C136.484 31.9795 135.895 31.8345 135.188 31.8345C134.372 31.8345 133.746 31.9795 133.311 32.2696C132.876 32.5597 132.659 32.9857 132.659 33.5478C132.659 33.9285 132.776 34.2458 133.012 34.4996C133.266 34.7534 133.665 34.9891 134.209 35.2066C134.771 35.4061 135.568 35.6146 136.602 35.8321C138.288 36.1403 139.629 36.5301 140.627 37.0015C141.642 37.4547 142.385 38.053 142.857 38.7963C143.328 39.5215 143.564 40.4371 143.564 41.543C143.564 42.7577 143.21 43.8183 142.503 44.7248C141.814 45.6132 140.844 46.3021 139.593 46.7916C138.36 47.263 136.946 47.4987 135.351 47.4987Z" fill="#1B1B1B"/>
<path d="M146.965 47.2267C146.784 47.2267 146.621 47.1633 146.476 47.0363C146.349 46.8913 146.285 46.7281 146.285 46.5468V28.8703C146.285 28.6708 146.349 28.5077 146.476 28.3808C146.621 28.2539 146.784 28.1904 146.965 28.1904H150.392C150.591 28.1904 150.754 28.2539 150.881 28.3808C151.008 28.5077 151.072 28.6708 151.072 28.8703V34.9075L156.103 28.7071C156.32 28.3626 156.674 28.1904 157.163 28.1904H161.079C161.243 28.1904 161.379 28.2539 161.487 28.3808C161.596 28.4895 161.65 28.6165 161.65 28.7615C161.65 28.8884 161.623 28.9972 161.569 29.0878L155.042 37.3006L162.058 46.3293C162.131 46.4018 162.167 46.5106 162.167 46.6556C162.167 46.8007 162.113 46.9366 162.004 47.0635C161.895 47.1723 161.759 47.2267 161.596 47.2267H157.544C157.109 47.2267 156.746 47.0454 156.456 46.6828L151.072 39.9657V46.5468C151.072 46.7463 151.008 46.9094 150.881 47.0363C150.754 47.1633 150.591 47.2267 150.392 47.2267H146.965Z" fill="#1B1B1B"/>
<path d="M169.893 47.2267C169.712 47.2267 169.548 47.1633 169.403 47.0363C169.276 46.8913 169.213 46.7281 169.213 46.5468V40.7L162.904 29.0606C162.849 28.8975 162.822 28.7978 162.822 28.7615C162.822 28.6165 162.877 28.4895 162.985 28.3808C163.112 28.2539 163.257 28.1904 163.42 28.1904H166.82C167.182 28.1904 167.5 28.3808 167.772 28.7615L171.66 35.7777L175.577 28.7615C175.794 28.3808 176.111 28.1904 176.528 28.1904H179.928C180.091 28.1904 180.227 28.2539 180.336 28.3808C180.444 28.4895 180.499 28.6165 180.499 28.7615C180.499 28.8521 180.481 28.9519 180.444 29.0606L174.135 40.7V46.5468C174.135 46.7463 174.063 46.9094 173.918 47.0363C173.791 47.1633 173.628 47.2267 173.428 47.2267H169.893Z" fill="#1B1B1B"/>
</svg>
