<svg width="50" height="50" viewBox="0 0 50 50" fill="none" xmlns="http://www.w3.org/2000/svg">
<path d="M40.0561 12.6032C43.0206 16.5314 42.9308 22.6727 41.6568 28.6425C40.3828 34.6205 37.9083 40.427 33.4084 42.9587C28.9086 45.4822 22.3753 44.7227 17.1241 41.946C11.8729 39.1694 7.89577 34.3755 7.16077 29.3612C6.4176 24.3469 8.92477 19.1039 12.4528 15.045C15.9889 10.9862 20.5378 8.11154 25.8216 7.53171C31.0973 6.96004 37.0998 8.67504 40.0561 12.6032Z" fill="#FFDE5F"/>
<path d="M35.0947 24.8409V25.7609C35.0935 27.9173 34.3952 30.0156 33.1041 31.7427C31.8129 33.4699 29.998 34.7334 27.9301 35.3448C25.8622 35.9562 23.652 35.8828 21.6292 35.1355C19.6064 34.3882 17.8794 33.007 16.7057 31.198C15.532 29.3889 14.9745 27.249 15.1164 25.0972C15.2583 22.9455 16.0919 20.8972 17.493 19.258C18.8941 17.6187 20.7875 16.4763 22.8909 16.0011C24.9943 15.5258 27.195 15.7432 29.1647 16.6209" stroke="#1B1B1B" stroke-width="2" stroke-linecap="round" stroke-linejoin="round"/>
<path d="M35.0947 17.7609L25.0947 27.7709L22.0947 24.7709" stroke="#1B1B1B" stroke-width="2" stroke-linecap="round" stroke-linejoin="round"/>
</svg>
